<mxfile host="Electron" modified="2023-12-08T20:53:02.049Z" agent="Mozilla/5.0 (X11; Linux x86_64) AppleWebKit/537.36 (KHTML, like Gecko) draw.io/22.1.2 Chrome/114.0.5735.289 Electron/25.9.4 Safari/537.36" etag="cayggyuFblFUfP4GQj7B" version="22.1.2" type="device">
  <diagram name="Page-1" id="iCulDZKx75Jq6euSRnhu">
    <mxGraphModel dx="1522" dy="1043" grid="1" gridSize="9.8425" guides="1" tooltips="1" connect="1" arrows="1" fold="1" page="1" pageScale="1" pageWidth="1654" pageHeight="1169" math="0" shadow="0">
      <root>
        <mxCell id="0" />
        <mxCell id="1" parent="0" />
        <mxCell id="vyATv1jcvpRokRXXBtPN-20" style="edgeStyle=orthogonalEdgeStyle;rounded=0;orthogonalLoop=1;jettySize=auto;html=1;exitX=0.5;exitY=1;exitDx=0;exitDy=0;entryX=0.5;entryY=0;entryDx=0;entryDy=0;" edge="1" parent="1" source="vyATv1jcvpRokRXXBtPN-3" target="vyATv1jcvpRokRXXBtPN-12">
          <mxGeometry relative="1" as="geometry">
            <mxPoint x="630.16" y="698.5275000000001" as="targetPoint" />
          </mxGeometry>
        </mxCell>
        <mxCell id="vyATv1jcvpRokRXXBtPN-3" value="sel4-sys&lt;br&gt;&lt;font style=&quot;font-size: 8px;&quot;&gt;(build, link, bindings)&lt;/font&gt;" style="rounded=0;whiteSpace=wrap;html=1;" vertex="1" parent="1">
          <mxGeometry x="511.99999999999994" y="629.63" width="314.72" height="39.37" as="geometry" />
        </mxCell>
        <mxCell id="vyATv1jcvpRokRXXBtPN-38" style="edgeStyle=orthogonalEdgeStyle;rounded=0;orthogonalLoop=1;jettySize=auto;html=1;exitX=0.5;exitY=1;exitDx=0;exitDy=0;entryX=0.5;entryY=0;entryDx=0;entryDy=0;" edge="1" parent="1" source="vyATv1jcvpRokRXXBtPN-21" target="vyATv1jcvpRokRXXBtPN-34">
          <mxGeometry relative="1" as="geometry" />
        </mxCell>
        <mxCell id="vyATv1jcvpRokRXXBtPN-21" value="sel4rs-rootserver&lt;br&gt;&lt;font style=&quot;font-size: 8px;&quot;&gt;(init system for seL4, start kernel, rootserver macro)&lt;/font&gt;" style="rounded=0;whiteSpace=wrap;html=1;" vertex="1" parent="1">
          <mxGeometry x="511.81" y="472.13" width="314.96" height="39.37" as="geometry" />
        </mxCell>
        <mxCell id="vyATv1jcvpRokRXXBtPN-29" style="edgeStyle=orthogonalEdgeStyle;rounded=0;orthogonalLoop=1;jettySize=auto;html=1;exitX=0.5;exitY=1;exitDx=0;exitDy=0;entryX=0.5;entryY=0;entryDx=0;entryDy=0;" edge="1" parent="1" source="vyATv1jcvpRokRXXBtPN-23" target="vyATv1jcvpRokRXXBtPN-24">
          <mxGeometry relative="1" as="geometry" />
        </mxCell>
        <mxCell id="vyATv1jcvpRokRXXBtPN-23" value="sel4-zynq7000" style="rounded=0;whiteSpace=wrap;html=1;" vertex="1" parent="1">
          <mxGeometry x="216.52999999999997" y="472.14" width="118.11" height="39.37" as="geometry" />
        </mxCell>
        <mxCell id="vyATv1jcvpRokRXXBtPN-24" value="sel4-armv7a" style="rounded=0;whiteSpace=wrap;html=1;" vertex="1" parent="1">
          <mxGeometry x="216.52999999999997" y="550.88" width="118.11" height="39.37" as="geometry" />
        </mxCell>
        <mxCell id="vyATv1jcvpRokRXXBtPN-30" style="edgeStyle=orthogonalEdgeStyle;rounded=0;orthogonalLoop=1;jettySize=auto;html=1;exitX=0.5;exitY=1;exitDx=0;exitDy=0;entryX=0.5;entryY=0;entryDx=0;entryDy=0;" edge="1" parent="1" source="vyATv1jcvpRokRXXBtPN-25" target="vyATv1jcvpRokRXXBtPN-28">
          <mxGeometry relative="1" as="geometry" />
        </mxCell>
        <mxCell id="vyATv1jcvpRokRXXBtPN-31" style="rounded=0;orthogonalLoop=1;jettySize=auto;html=1;exitX=0.5;exitY=1;exitDx=0;exitDy=0;entryX=0.5;entryY=0;entryDx=0;entryDy=0;" edge="1" parent="1" source="vyATv1jcvpRokRXXBtPN-25" target="vyATv1jcvpRokRXXBtPN-24">
          <mxGeometry relative="1" as="geometry" />
        </mxCell>
        <mxCell id="vyATv1jcvpRokRXXBtPN-25" value="sel4-zynqmp" style="rounded=0;whiteSpace=wrap;html=1;" vertex="1" parent="1">
          <mxGeometry x="354.32000000000005" y="472.13" width="118.11" height="39.37" as="geometry" />
        </mxCell>
        <mxCell id="vyATv1jcvpRokRXXBtPN-28" value="sel4-armv8a" style="rounded=0;whiteSpace=wrap;html=1;" vertex="1" parent="1">
          <mxGeometry x="354.32000000000005" y="550.88" width="118.11" height="39.37" as="geometry" />
        </mxCell>
        <mxCell id="vyATv1jcvpRokRXXBtPN-32" value="" style="endArrow=none;dashed=1;html=1;rounded=0;" edge="1" parent="1">
          <mxGeometry width="50" height="50" relative="1" as="geometry">
            <mxPoint x="118" y="433.07" as="sourcePoint" />
            <mxPoint x="1417" y="433.07" as="targetPoint" />
          </mxGeometry>
        </mxCell>
        <mxCell id="vyATv1jcvpRokRXXBtPN-33" value="" style="group" vertex="1" connectable="0" parent="1">
          <mxGeometry x="511.81" y="708.37" width="314.96" height="177.17" as="geometry" />
        </mxCell>
        <mxCell id="vyATv1jcvpRokRXXBtPN-13" value="github.com/seL4" style="text;html=1;strokeColor=none;fillColor=none;align=center;verticalAlign=middle;whiteSpace=wrap;rounded=0;container=0;" vertex="1" parent="vyATv1jcvpRokRXXBtPN-33">
          <mxGeometry x="10.399797133600726" y="6.840000000000034" width="294.4147470762544" height="20.160000000000004" as="geometry" />
        </mxCell>
        <mxCell id="vyATv1jcvpRokRXXBtPN-12" value="" style="rounded=0;whiteSpace=wrap;html=1;fillColor=none;container=0;" vertex="1" parent="vyATv1jcvpRokRXXBtPN-33">
          <mxGeometry x="0.2504098324854218" width="314.70959016751453" height="177.17000000000002" as="geometry" />
        </mxCell>
        <mxCell id="vyATv1jcvpRokRXXBtPN-4" value="seL4&lt;br&gt;&lt;font style=&quot;font-size: 8px;&quot;&gt;(kernel, libsel4)&lt;/font&gt;" style="rounded=0;whiteSpace=wrap;html=1;container=0;strokeWidth=4;" vertex="1" parent="vyATv1jcvpRokRXXBtPN-33">
          <mxGeometry x="46.677622883257136" y="29.52999999999998" width="123.82686952723412" height="39.370000000000005" as="geometry" />
        </mxCell>
        <mxCell id="vyATv1jcvpRokRXXBtPN-5" value="musllibc" style="rounded=0;whiteSpace=wrap;html=1;container=0;" vertex="1" parent="vyATv1jcvpRokRXXBtPN-33">
          <mxGeometry x="180.8233982044274" y="29.53249999999992" width="123.82686952723412" height="39.370000000000005" as="geometry" />
        </mxCell>
        <mxCell id="vyATv1jcvpRokRXXBtPN-7" value="sel4runtime&lt;br&gt;&lt;font style=&quot;font-size: 8px;&quot;&gt;(entry point definitions)&lt;/font&gt;" style="rounded=0;whiteSpace=wrap;html=1;container=0;" vertex="1" parent="vyATv1jcvpRokRXXBtPN-33">
          <mxGeometry x="46.68548590519819" y="78.74749999999985" width="123.82686952723412" height="39.370000000000005" as="geometry" />
        </mxCell>
        <mxCell id="vyATv1jcvpRokRXXBtPN-8" value="seL4_libs&lt;br&gt;&lt;font style=&quot;font-size: 8px;&quot;&gt;(allocman, vka, vspace)&lt;/font&gt;" style="rounded=0;whiteSpace=wrap;html=1;container=0;" vertex="1" parent="vyATv1jcvpRokRXXBtPN-33">
          <mxGeometry x="180.83912424830964" y="78.74749999999985" width="123.82686952723412" height="39.370000000000005" as="geometry" />
        </mxCell>
        <mxCell id="vyATv1jcvpRokRXXBtPN-9" value="util_libs&lt;br&gt;&lt;font style=&quot;font-size: 8px;&quot;&gt;(cpio, elf, fdt, eth, pci)&lt;/font&gt;" style="rounded=0;whiteSpace=wrap;html=1;container=0;" vertex="1" parent="vyATv1jcvpRokRXXBtPN-33">
          <mxGeometry x="180.83126122636858" y="127.95999999999984" width="123.82686952723412" height="39.370000000000005" as="geometry" />
        </mxCell>
        <mxCell id="vyATv1jcvpRokRXXBtPN-10" value="seL4_tools&lt;br&gt;&lt;font style=&quot;font-size: 8px;&quot;&gt;(elfloader, cmake tools)&lt;/font&gt;" style="rounded=0;whiteSpace=wrap;html=1;container=0;" vertex="1" parent="vyATv1jcvpRokRXXBtPN-33">
          <mxGeometry x="46.6802438905709" y="127.96249999999978" width="123.82686952723412" height="39.370000000000005" as="geometry" />
        </mxCell>
        <mxCell id="vyATv1jcvpRokRXXBtPN-14" value="" style="shape=curlyBracket;whiteSpace=wrap;html=1;rounded=1;labelPosition=left;verticalLabelPosition=middle;align=right;verticalAlign=middle;container=0;" vertex="1" parent="vyATv1jcvpRokRXXBtPN-33">
          <mxGeometry x="20.960299121483793" y="29.530000000000094" width="20.968058509395334" height="138.74000000000004" as="geometry" />
        </mxCell>
        <mxCell id="vyATv1jcvpRokRXXBtPN-15" value="cmake" style="text;html=1;align=center;verticalAlign=middle;resizable=0;points=[];autosize=1;strokeColor=none;fillColor=none;rotation=-90;container=0;" vertex="1" parent="vyATv1jcvpRokRXXBtPN-33">
          <mxGeometry x="-15.227948858418836" y="84.135" width="59.05499999999999" height="29.527499999999996" as="geometry" />
        </mxCell>
        <mxCell id="vyATv1jcvpRokRXXBtPN-35" style="edgeStyle=orthogonalEdgeStyle;rounded=0;orthogonalLoop=1;jettySize=auto;html=1;exitX=0.5;exitY=1;exitDx=0;exitDy=0;entryX=0.5;entryY=0;entryDx=0;entryDy=0;" edge="1" parent="1" source="vyATv1jcvpRokRXXBtPN-34" target="vyATv1jcvpRokRXXBtPN-3">
          <mxGeometry relative="1" as="geometry" />
        </mxCell>
        <mxCell id="vyATv1jcvpRokRXXBtPN-34" value="sel4rs&lt;br&gt;&lt;font style=&quot;font-size: 8px;&quot;&gt;(Rust support for seL4)&lt;/font&gt;" style="rounded=0;whiteSpace=wrap;html=1;" vertex="1" parent="1">
          <mxGeometry x="511.81" y="550.88" width="314.96" height="39.37" as="geometry" />
        </mxCell>
        <mxCell id="vyATv1jcvpRokRXXBtPN-39" style="rounded=0;orthogonalLoop=1;jettySize=auto;html=1;exitX=0.25;exitY=1;exitDx=0;exitDy=0;entryX=0.5;entryY=0;entryDx=0;entryDy=0;" edge="1" parent="1" source="vyATv1jcvpRokRXXBtPN-37" target="vyATv1jcvpRokRXXBtPN-23">
          <mxGeometry relative="1" as="geometry" />
        </mxCell>
        <mxCell id="vyATv1jcvpRokRXXBtPN-40" style="rounded=0;orthogonalLoop=1;jettySize=auto;html=1;exitX=0.25;exitY=1;exitDx=0;exitDy=0;entryX=0.5;entryY=0;entryDx=0;entryDy=0;" edge="1" parent="1" source="vyATv1jcvpRokRXXBtPN-37" target="vyATv1jcvpRokRXXBtPN-25">
          <mxGeometry relative="1" as="geometry" />
        </mxCell>
        <mxCell id="vyATv1jcvpRokRXXBtPN-41" style="rounded=0;orthogonalLoop=1;jettySize=auto;html=1;exitX=0.75;exitY=1;exitDx=0;exitDy=0;entryX=0.5;entryY=0;entryDx=0;entryDy=0;" edge="1" parent="1" source="vyATv1jcvpRokRXXBtPN-37" target="vyATv1jcvpRokRXXBtPN-21">
          <mxGeometry relative="1" as="geometry" />
        </mxCell>
        <mxCell id="vyATv1jcvpRokRXXBtPN-37" value="a653rs-sel4-rootserver" style="rounded=0;whiteSpace=wrap;html=1;perimeterSpacing=0;gradientColor=none;strokeWidth=4;" vertex="1" parent="1">
          <mxGeometry x="393.7" y="314.96" width="236.22" height="40.32" as="geometry" />
        </mxCell>
        <mxCell id="vyATv1jcvpRokRXXBtPN-47" style="rounded=0;orthogonalLoop=1;jettySize=auto;html=1;exitX=0.5;exitY=1;exitDx=0;exitDy=0;entryX=1;entryY=0.5;entryDx=0;entryDy=0;edgeStyle=orthogonalEdgeStyle;" edge="1" parent="1" source="vyATv1jcvpRokRXXBtPN-46" target="vyATv1jcvpRokRXXBtPN-34">
          <mxGeometry relative="1" as="geometry">
            <Array as="points">
              <mxPoint x="787" y="384" />
              <mxPoint x="866" y="384" />
              <mxPoint x="866" y="571" />
              <mxPoint x="827" y="571" />
            </Array>
          </mxGeometry>
        </mxCell>
        <mxCell id="vyATv1jcvpRokRXXBtPN-62" style="edgeStyle=orthogonalEdgeStyle;rounded=0;orthogonalLoop=1;jettySize=auto;html=1;exitX=1;exitY=0.5;exitDx=0;exitDy=0;entryX=0;entryY=0.5;entryDx=0;entryDy=0;" edge="1" parent="1" source="vyATv1jcvpRokRXXBtPN-46" target="vyATv1jcvpRokRXXBtPN-59">
          <mxGeometry relative="1" as="geometry" />
        </mxCell>
        <mxCell id="vyATv1jcvpRokRXXBtPN-46" value="a653rs-sel4" style="rounded=0;whiteSpace=wrap;html=1;perimeterSpacing=0;gradientColor=none;strokeWidth=1;" vertex="1" parent="1">
          <mxGeometry x="669.2925" y="314.9625" width="236.22" height="40.32" as="geometry" />
        </mxCell>
        <mxCell id="vyATv1jcvpRokRXXBtPN-59" value="&lt;font style=&quot;font-size: 8px;&quot;&gt;github.com/dlr-ft/&lt;/font&gt;&lt;br&gt;a653rs" style="rounded=0;whiteSpace=wrap;html=1;perimeterSpacing=0;gradientColor=none;strokeWidth=1;" vertex="1" parent="1">
          <mxGeometry x="1141.73" y="314.96" width="157.48" height="40.32" as="geometry" />
        </mxCell>
        <mxCell id="vyATv1jcvpRokRXXBtPN-61" value="" style="endArrow=none;dashed=1;html=1;rounded=0;" edge="1" parent="1">
          <mxGeometry width="50" height="50" relative="1" as="geometry">
            <mxPoint x="118.1125" y="236.22249999999997" as="sourcePoint" />
            <mxPoint x="1417.1125" y="236.22249999999997" as="targetPoint" />
          </mxGeometry>
        </mxCell>
      </root>
    </mxGraphModel>
  </diagram>
</mxfile>
